<?xml version="1.0" encoding="utf-8"?>
<svg version="1.1" id="Layer_1" xmlns="http://www.w3.org/2000/svg" xmlns:xlink="http://www.w3.org/1999/xlink" x="0px" y="0px"
	 viewBox="0 0 512 420" style="enable-background:new 0 0 512 420;" xml:space="preserve">
<g>
	<path style="fill:#FFFFFF;" d="M406,202.4c0-110.5-89.5-200-200-200S6,91.9,6,202.4s89.5,200,200,200c51.8,0,98.9-19.7,134.4-51.9
		c-20.9-21.7-38.6-54.2-45.3-102.7c-16.5,32.4-50.2,54.6-89.1,54.6c-55.2,0-100-44.8-100-100c0-55.2,44.8-100,100-100
		s100,44.8,100,100c0,108.1,58.4,162.2,112,189.1c45.7,22.9,88,26.2,88,26.2S406,328.8,406,202.4z"/>
</g>
</svg>
